<?xml version="1.0" encoding="utf-8"?>
<!-- Generator: Adobe Illustrator 24.0.1, SVG Export Plug-In . SVG Version: 6.00 Build 0)  -->
<svg version="1.1" id="Layer_1" xmlns="http://www.w3.org/2000/svg" xmlns:xlink="http://www.w3.org/1999/xlink" x="0px" y="0px"
	 viewBox="0 0 206 246.9" style="enable-background:new 0 0 206 246.9;" xml:space="preserve">
<g>
	<g>
		<path d="M26.1,0.5l4.3,4.9c0.2,0.2,0.3,0.6,0.3,0.9v30.4c0,0.3-0.1,0.6-0.3,0.9l-5,6.2c-0.2,0.3-0.6,0.5-1.1,0.5H12.4
			c-0.5,0-1,0-1.4-0.1v10.2c0,0.4-0.2,0.7-0.4,1l-1.1,1.1C9.3,56.8,8.9,57,8.4,57H2.6c-0.4,0-0.7-0.2-1-0.4l-1.2-1.2
			C0.2,55,0,54.7,0,54.3V2.6c0-0.4,0.2-0.7,0.4-1l1.2-1.2C1.9,0.2,2.2,0,2.6,0h6c0.3,0,0.7,0.2,1,0.4L11,2l2.6-1.8
			C13.8,0.1,14.1,0,14.3,0H25C25.4,0,25.8,0.2,26.1,0.5z M18.5,34.5l1.2-1.3V11l-1.2-1.3h-6.1L11,11v22.2l1.4,1.3H18.5z"/>
		<path d="M29.1,130.6v15.1c0,0.4-0.2,0.7-0.4,1l-4.9,4.9c-0.2,0.2-0.6,0.4-1,0.4h-16c-0.3,0-0.6-0.1-0.9-0.3l-5.4-4.9
			c-0.2-0.2-0.4-0.6-0.4-1v-10.2c0-0.4,0.2-0.7,0.4-1l1.2-1.2c0.2-0.2,0.6-0.4,1-0.4h5.9c0.4,0,0.7,0.2,1,0.4l1.1,1.2
			c0.2,0.2,0.4,0.6,0.4,1v5.6l1.4,1.3H17l1.2-1.3v-5.9L0.4,118.4c-0.2-0.2-0.4-0.6-0.4-1v-15.6c0-0.4,0.2-0.7,0.4-1l5.4-5.5
			c0.2-0.2,0.6-0.4,1-0.4h15.9c0.4,0,0.8,0.2,1.1,0.5l4.4,5.6c0.2,0.2,0.3,0.5,0.3,0.8v9.5c0,0.4-0.2,0.7-0.4,1l-1.2,1.2
			c-0.2,0.2-0.6,0.4-1,0.4H20c-0.4,0-0.7-0.2-1-0.4l-1.1-1.2c-0.2-0.2-0.4-0.6-0.4-1V106l-1.3-1.3h-3.7L11,106v6.5l17.7,17.1
			C28.9,129.8,29.1,130.2,29.1,130.6z"/>
		<path d="M16.5,237.5l1.1,1.2c0.2,0.2,0.4,0.6,0.4,1v4.5c0,0.4-0.2,0.7-0.4,1l-1.1,1.2c-0.2,0.2-0.6,0.4-1,0.4H4.9
			c-0.4,0-0.7-0.2-1-0.4l-3.6-3.6c-0.2-0.2-0.4-0.6-0.4-1v-49.3c0-0.4,0.2-0.7,0.4-1l1.2-1.2c0.2-0.2,0.6-0.4,1-0.4h5.9
			c0.4,0,0.7,0.2,1,0.4l1.1,1.2c0.2,0.2,0.4,0.6,0.4,1v43l1.6,1.5h2.9C16,237.1,16.3,237.3,16.5,237.5z"/>
	</g>
	<g>
		<path d="M111.1,0.5l5,5.5c0.2,0.2,0.3,0.6,0.3,0.9v13.5c0,0.4-0.2,0.7-0.4,1l-5.4,5.5l5.3,4.1c0.4,0.2,0.6,0.6,0.6,1.1V54
			c0,0.4-0.2,0.7-0.4,1l-1.5,1.5c-0.2,0.2-0.6,0.4-1,0.4h-4.5c-0.4,0-0.7-0.2-1-0.4l-1.5-1.5c-0.2-0.2-0.4-0.6-0.4-1V35.8l-3-1.7
			L98.4,39v15.2c0,0.4-0.2,0.7-0.4,1l-1.1,1.2c-0.2,0.2-0.6,0.4-1,0.4H90c-0.4,0-0.7-0.2-1-0.4l-1.2-1.2c-0.2-0.2-0.4-0.6-0.4-1V4.8
			c0-0.4,0.2-0.7,0.4-1l3.3-3.4c0.2-0.2,0.6-0.4,1-0.4h18C110.5,0,110.9,0.2,111.1,0.5z M106,11l-1.3-1.3h-4.9L98.4,11v13.6l7.5-7.5
			L106,11L106,11z"/>
		<path d="M108,113.6l-1.5-1.5c-0.2-0.2-0.4-0.6-0.4-1v-4.8l-1.6-1.6h-4.4l-1.5,1.6v34.2l1.5,1.6h4.4l1.6-1.6v-4.8
			c0-0.4,0.2-0.7,0.4-1l1.5-1.5c0.2-0.2,0.6-0.4,1-0.4h4.5c0.4,0,0.7,0.2,1,0.4l1.5,1.5c0.2,0.2,0.4,0.6,0.4,1v9.6
			c0,0.4-0.2,0.7-0.4,1l-5,5.1c-0.2,0.2-0.6,0.4-1,0.4H92.6c-0.4,0-0.7-0.2-1-0.4l-3.6-3.6c-0.2-0.2-0.4-0.6-0.4-1v-45.5
			c0-0.4,0.2-0.7,0.4-1l4.9-5c0.2-0.2,0.6-0.4,1-0.4h17c0.4,0,0.7,0.2,1,0.4l4,4c0.2,0.2,0.4,0.6,0.4,1v10.9c0,0.4-0.2,0.7-0.4,1
			l-1.5,1.5c-0.2,0.2-0.6,0.4-1,0.4H109C108.6,114,108.3,113.9,108,113.6z"/>
		<path d="M109.4,237.5l1.1,1.2c0.2,0.2,0.4,0.6,0.4,1v4.5c0,0.4-0.2,0.7-0.4,1l-1.1,1.2c-0.2,0.2-0.6,0.4-1,0.4H97.9
			c-0.4,0-0.7-0.2-1-0.4l-3.6-3.6c-0.2-0.2-0.4-0.6-0.4-1v-49.3c0-0.4,0.2-0.7,0.4-1l1.2-1.2c0.2-0.2,0.6-0.4,1-0.4h5.9
			c0.4,0,0.7,0.2,1,0.4l1.1,1.2c0.2,0.2,0.4,0.6,0.4,1v43l1.6,1.5h2.9C108.9,237.1,109.2,237.3,109.4,237.5z"/>
	</g>
	<g>
		<path d="M192.5,0.4l1.1,1.2c0.2,0.2,0.4,0.6,0.4,1v51.7c0,0.4-0.2,0.7-0.4,1l-1.1,1.2c-0.2,0.2-0.6,0.4-1,0.4h-5.9
			c-0.4,0-0.7-0.2-1-0.4l-1.2-1.2c-0.2-0.2-0.4-0.6-0.4-1V2.6c0-0.4,0.2-0.7,0.4-1l1.2-1.2c0.2-0.2,0.6-0.4,1-0.4h5.9
			C192,0,192.3,0.2,192.5,0.4z"/>
		<path d="M192.5,95.4l1.1,1.2c0.2,0.2,0.4,0.6,0.4,1v51.7c0,0.4-0.2,0.7-0.4,1l-1.1,1.2c-0.2,0.2-0.6,0.4-1,0.4h-5.9
			c-0.4,0-0.7-0.2-1-0.4l-1.2-1.2c-0.2-0.2-0.4-0.6-0.4-1V97.6c0-0.4,0.2-0.7,0.4-1l1.2-1.2c0.2-0.2,0.6-0.4,1-0.4h5.9
			C192,95,192.3,95.2,192.5,95.4z"/>
		<path d="M199.9,194l6.1,49.6c0.1,0.3-0.1,0.7-0.3,1.1l-1.5,1.6c-0.2,0.3-0.6,0.5-1.1,0.5h-5.5c-0.3,0-0.7-0.2-1-0.5l-1.7-1.8
			c-0.2-0.2-0.2-0.5-0.3-0.7l-1.7-13.4l-2.3-2h-4.3l-2.3,2l-1.7,13.4c-0.1,0.2-0.2,0.5-0.3,0.7l-1.7,1.9c-0.2,0.2-0.6,0.4-1,0.4
			h-5.5c-0.4,0-0.8-0.2-1.1-0.5l-1.5-1.6c-0.2-0.3-0.4-0.7-0.3-1.1L177,194c0.1-0.3,0.2-0.6,0.5-0.8l3.1-2.8
			c0.2-0.2,0.6-0.3,0.9-0.3h13.8c0.3,0,0.6,0.1,0.9,0.3l3.1,2.8C199.7,193.5,199.9,193.7,199.9,194z M190.4,218.8l1.5-1.5l-1.3-16.6
			l-1.1-1h-1.9l-1.1,1l-1.2,16.6l1.3,1.5H190.4z"/>
	</g>
</g>
</svg>
