<?xml version="1.0" encoding="utf-8"?>
<!-- Generator: Adobe Illustrator 24.0.1, SVG Export Plug-In . SVG Version: 6.00 Build 0)  -->
<svg version="1.1" id="Layer_1" xmlns="http://www.w3.org/2000/svg" xmlns:xlink="http://www.w3.org/1999/xlink" x="0px" y="0px"
	 viewBox="0 0 109 1080" style="enable-background:new 0 0 109 1080;" xml:space="preserve">
<style type="text/css">
	.st0{fill:none;stroke:#000000;stroke-width:2;stroke-miterlimit:10;}
</style>
<g>
	<path d="M70.6,85.7l1.4,1.4c0.3,0.3,0.5,0.7,0.5,1.1v6.9c0,0.5-0.2,0.8-0.5,1.1l-1.4,1.3C70.3,97.9,70,98,69.5,98H57.4v13.1
		c0,0.5-0.2,0.8-0.5,1.1l-1.4,1.3c-0.3,0.3-0.7,0.5-1.1,0.5h-6.9c-0.5,0-0.8-0.2-1.1-0.5l-1.3-1.3c-0.3-0.3-0.5-0.7-0.5-1.1V98H32.4
		c-0.5,0-0.8-0.2-1.1-0.5L30,96.3c-0.3-0.3-0.5-0.7-0.5-1.1v-6.9c0-0.5,0.2-0.8,0.5-1.1l1.3-1.4c0.3-0.3,0.7-0.5,1.1-0.5h12.2v-13
		c0-0.5,0.2-0.8,0.5-1.1l1.3-1.3c0.3-0.3,0.7-0.5,1.1-0.5h6.9c0.5,0,0.8,0.2,1.1,0.5l1.4,1.3c0.3,0.3,0.5,0.7,0.5,1.1v13h12.1
		C70,85.3,70.3,85.5,70.6,85.7z"/>
</g>
<line class="st0" x1="51" y1="161" x2="51" y2="1080"/>
</svg>
