<?xml version="1.0" encoding="utf-8"?>
<!-- Generator: Adobe Illustrator 24.0.1, SVG Export Plug-In . SVG Version: 6.00 Build 0)  -->
<svg version="1.1" id="Layer_1" xmlns="http://www.w3.org/2000/svg" xmlns:xlink="http://www.w3.org/1999/xlink" x="0px" y="0px"
	 viewBox="0 0 843 1265.2" style="enable-background:new 0 0 843 1265.2;" xml:space="preserve">
<style type="text/css">
	.st0{opacity:5.000000e-02;}
</style>
<g class="st0">
	<g>
		<path d="M3.4,1085.2l33.6-29.6c1.7-1.7,3.9-2.2,6.2-2.2h209.7c2.2,0,4.5,0.6,6.2,2.2l42.5,34.7c2.2,1.7,3.4,4.5,3.4,7.3v82.2
			c0,3.4,0,6.7-0.6,9.5h70.5c2.8,0,5,1.1,6.7,2.8l7.8,7.8c2.2,1.7,3.4,4.5,3.4,7.3v40.3c0,2.8-1.1,5-2.8,6.7l-8.4,8.4
			c-1.7,1.7-3.9,2.8-6.7,2.8H17.9c-2.8,0-5-1.1-6.7-2.8l-8.4-8.4c-1.7-1.7-2.8-3.9-2.8-6.7v-41.4c0-2.2,1.1-5,2.8-6.7l11.2-10.1
			l-12.3-17.9c-1.1-1.7-1.7-3.4-1.7-5v-73.8C0,1089.6,1.1,1086.8,3.4,1085.2z M238.2,1137.7l-8.9-8.4H76.1l-8.9,8.4v41.9l8.9,9.5
			h153.2l8.9-9.5V1137.7z"/>
		<path d="M2.8,843.1l38.6-39.1c1.7-1.7,3.9-2.8,6.7-2.8H340c2.2,0,4.5,0.6,6.2,2.2l43.6,39.7c1.7,1.7,2.8,4.5,2.8,6.7v104.6
			c0,2.8-1.1,5.6-3.4,7.3l-43.1,38c-1.7,1.7-3.9,2.2-6.2,2.2H47.5c-2.8,0-5-1.1-6.7-2.8c-16.8-16.8-20.7-20.1-38-37.5
			c-1.7-1.7-2.8-3.9-2.8-6.7V849.8C0,847,1.1,844.7,2.8,843.1z M67.7,885.6v30.8l8.9,9.5h241l8.9-9.5v-30.8l-8.9-8.4h-241
			L67.7,885.6z"/>
		<path d="M3.4,574.7l38-34.7c1.7-1.7,3.9-2.2,6.2-2.2h93.4c2.8,0,5,1.1,6.7,2.8l38,37.5l28.5-36.3c1.7-2.8,4.5-3.9,7.3-3.9H373
			c2.8,0,5,1.1,6.7,2.8l10.1,10.1c1.7,1.7,2.8,3.9,2.8,6.7v30.8c0,2.8-1.1,5-2.8,6.7l-10.1,10.1c-1.7,1.7-3.9,2.8-6.7,2.8H247.2
			l-11.7,20.7l34.1,34.1h105.1c2.8,0,5,1.1,6.7,2.8l8.4,7.8c1.7,1.7,2.8,3.9,2.8,6.7v40.8c0,2.8-1.1,5-2.8,6.7l-8.4,8.4
			c-1.7,1.7-3.9,2.8-6.7,2.8H33c-2.8,0-5-1.1-6.7-2.8L2.8,712.8c-1.7-1.7-2.8-3.9-2.8-6.7V581.9C0,579.1,1.1,576.3,3.4,574.7z
			 M76.1,610.5l-8.9,8.9V653l8.9,9.5h94l-52-52H76.1z"/>
		<path d="M3.4,289.9l7.8-7.8c1.7-1.7,3.9-2.8,6.7-2.8h40.8c2.8,0,5,1.1,6.7,2.8l8.4,7.8c1.7,1.7,2.8,3.9,2.8,6.7v47.5l6.7,6.7
			h291.9c2.8,0,5,1.1,6.7,2.8l7.8,8.4c1.7,1.7,2.8,3.9,2.8,6.7V409c0,2.8-1.1,5-2.8,6.7l-7.8,8.4c-1.7,1.7-3.9,2.8-6.7,2.8H83.3
			l-6.7,6.7v47.5c0,2.8-1.1,5-2.8,6.7l-8.4,7.8c-1.7,1.7-3.9,2.8-6.7,2.8H17.9c-2.8,0-5-1.1-6.7-2.8l-7.8-7.8
			c-1.7-1.7-2.8-3.9-2.8-6.7V296.6C0.6,293.8,1.7,291.6,3.4,289.9z"/>
		<path d="M453.8,838.6l7.8-7.8c1.7-1.7,3.9-2.8,6.7-2.8h32.4c2.8,0,5,1.1,6.7,2.8l7.8,7.8c1.7,1.7,2.8,3.9,2.8,6.7v69.9l11.2,10.6
			h85.6l10.1-9.5v-27.4c0-2.8,1.1-5,2.8-6.7l7.8-7.8c1.7-1.7,3.9-2.8,6.7-2.8h31.3c2.8,0,5,1.1,6.7,2.8l8.4,7.8
			c1.7,1.7,2.8,3.9,2.8,6.7v27.4l9.5,9.5h124.7c2.8,0,5,1.1,6.7,2.8l7.8,8.4c1.7,1.7,2.8,3.9,2.8,6.7v40.8c0,2.8-1.1,5-2.8,6.7
			l-7.8,7.8c-1.7,1.7-3.9,2.8-6.7,2.8h-331c-2.8,0-5-1.1-6.7-2.8L453.8,965c-1.7-1.7-2.8-3.9-2.8-6.7v-113
			C451,842.5,452.1,840.3,453.8,838.6z"/>
		<path d="M453.2,615.7l38.6-39.1c1.7-1.7,3.9-2.8,6.7-2.8h291.9c2.2,0,4.5,0.6,6.2,2.2l43.6,39.7c1.7,1.7,2.8,4.5,2.8,6.7V727
			c0,2.8-1.1,5.6-3.4,7.3l-43.1,38c-1.7,1.7-3.9,2.2-6.2,2.2H498c-2.8,0-5-1.1-6.7-2.8c-16.8-16.8-20.7-20.1-38-37.5
			c-1.7-1.7-2.8-3.9-2.8-6.7V622.5C450.4,619.7,451.5,617.4,453.2,615.7z M518.1,658.2V689l8.9,9.5h241l8.9-9.5v-30.8l-8.9-8.4H527
			L518.1,658.2z"/>
		<path d="M778.7,397.1l8.4-7.8c1.7-1.7,3.9-2.8,6.7-2.8h31.3c2.8,0,5,1.1,6.7,2.8l8.4,7.8c1.7,1.7,2.8,3.9,2.8,6.7v73.3
			c0,2.8-1.1,5-2.8,6.7l-24.6,24.6c-1.7,1.7-3.9,2.8-6.7,2.8H468.3c-2.8,0-5-1.1-6.7-2.8l-8.4-8.4c-1.7-1.7-2.8-3.9-2.8-6.7v-40.8
			c0-2.8,1.1-5,2.8-6.7l8.4-7.8c1.7-1.7,3.9-2.8,6.7-2.8h296.9l10.6-11.2v-20.1C775.9,401,777,398.8,778.7,397.1z"/>
		<path d="M453.2,274l8.4-7.8c1.7-1.7,3.9-2.8,6.7-2.8h356.8c2.8,0,5,1.1,6.7,2.8l8.4,7.8c1.7,1.7,2.8,3.9,2.8,6.7v40.8
			c0,2.8-1.1,5-2.8,6.7l-8.4,8.4c-1.7,1.7-3.9,2.8-6.7,2.8H468.3c-2.8,0-5-1.1-6.7-2.8l-8.4-8.4c-1.7-1.7-2.8-3.9-2.8-6.7v-40.8
			C450.4,277.9,451.5,275.7,453.2,274z"/>
		<path d="M453.2,41.9l38.6-39.1c1.7-1.7,3.9-2.8,6.7-2.8h291.9c2.2,0,4.5,0.6,6.2,2.2l43.6,39.7c1.7,1.7,2.8,4.5,2.8,6.7v104.6
			c0,2.8-1.1,5.6-3.4,7.3l-43.1,38c-1.7,1.7-3.9,2.2-6.2,2.2H498c-2.8,0-5-1.1-6.7-2.8c-16.8-16.8-20.7-20.1-38-37.5
			c-1.7-1.7-2.8-3.9-2.8-6.7V48.7C450.4,45.9,451.5,43.6,453.2,41.9z M518.1,84.4v30.8l8.9,9.5h241l8.9-9.5V84.4l-8.9-8.4H527
			L518.1,84.4z"/>
	</g>
	<g>
		<path d="M384.2,128.9l6.1,6.6c1.3,1.3,2.2,3.1,2.2,5.3v139.4c0,2.2-0.9,3.9-2.2,5.3l-6.1,6.6c-1.3,1.3-3.1,2.2-5.3,2.2h-32.1
			c-2.2,0-4-0.9-5.3-2.2l-6.6-6.6c-1.3-1.3-2.2-3.1-2.2-5.3V140.7c0-2.2,0.9-4,2.2-5.3l6.6-6.6c1.3-1.3,3.1-2.2,5.3-2.2h32.1
			C381.1,126.7,382.9,127.5,384.2,128.9z"/>
	</g>
</g>
</svg>
