<?xml version="1.0" encoding="utf-8"?>
<!-- Generator: Adobe Illustrator 24.0.1, SVG Export Plug-In . SVG Version: 6.00 Build 0)  -->
<svg version="1.1" id="Layer_1" xmlns="http://www.w3.org/2000/svg" xmlns:xlink="http://www.w3.org/1999/xlink" x="0px" y="0px"
	 viewBox="0 0 843 1265.2" style="enable-background:new 0 0 843 1265.2;" xml:space="preserve">
<style type="text/css">
	.st0{opacity:5.000000e-02;}
</style>
<g class="st0">
	<path d="M4.4,1039l32.4-28.6c1.6-1.6,3.8-2.2,5.9-2.2H245c2.2,0,4.3,0.5,5.9,2.2l41,33.5c2.2,1.6,3.2,4.3,3.2,7v79.3
		c0,3.2,0,6.5-0.5,9.2h68c2.7,0,4.9,1.1,6.5,2.7l7.6,7.6c2.2,1.6,3.2,4.3,3.2,7v38.8c0,2.7-1.1,4.9-2.7,6.5l-8.1,8.1
		c-1.6,1.6-3.8,2.7-6.5,2.7H18.4c-2.7,0-4.9-1.1-6.5-2.7l-8.1-8.1c-1.6-1.6-2.7-3.8-2.7-6.5v-39.9c0-2.2,1.1-4.9,2.7-6.5l10.8-9.7
		l-11.9-17.3c-1.1-1.6-1.6-3.2-1.6-4.9V1046C1.1,1043.3,2.2,1040.6,4.4,1039z M231,1089.7l-8.6-8.1H74.5l-8.6,8.1v40.5l8.6,9.2
		h147.8l8.6-9.2V1089.7z"/>
	<path d="M4.4,800.6l36.7-33.4c1.6-1.6,3.8-2.2,5.9-2.2h90.1c2.7,0,4.9,1.1,6.5,2.7l36.7,36.1l27.5-35.1c1.6-2.7,4.3-3.8,7-3.8H361
		c2.7,0,4.9,1.1,6.5,2.7l9.7,9.7c1.6,1.6,2.7,3.8,2.7,6.5v29.7c0,2.7-1.1,4.9-2.7,6.5l-9.7,9.7c-1.6,1.6-3.8,2.7-6.5,2.7H239.6
		l-11.3,20l32.9,32.9h101.4c2.7,0,4.9,1.1,6.5,2.7l8.1,7.6c1.6,1.6,2.7,3.8,2.7,6.5v39.4c0,2.7-1.1,4.9-2.7,6.5l-8.1,8.1
		c-1.6,1.6-3.8,2.7-6.5,2.7H33c-2.7,0-4.9-1.1-6.5-2.7L3.8,933.8c-1.6-1.6-2.7-3.8-2.7-6.5V807.6C1.1,804.9,2.2,802.2,4.4,800.6z
		 M74.5,835.1l-8.6,8.6v32.4l8.6,9.2h90.7L115,835.1H74.5z"/>
	<path d="M3.8,551.3l37.2-37.8c1.6-1.6,3.8-2.7,6.5-2.7h281.6c2.2,0,4.3,0.5,5.9,2.2l42.1,38.3c1.6,1.6,2.7,4.3,2.7,6.5v100.9
		c0,2.7-1.1,5.4-3.2,7l-41.5,36.7c-1.6,1.6-3.8,2.2-5.9,2.2H47c-2.7,0-4.9-1.1-6.5-2.7c-16.2-16.2-20-19.4-36.7-36.1
		c-1.6-1.6-2.7-3.8-2.7-6.5V557.8C1.1,555.1,2.2,552.9,3.8,551.3z M66.4,592.3V622l8.6,9.2h232.6l8.6-9.2v-29.7l-8.6-8.1H75
		L66.4,592.3z"/>
	<path d="M3.8,295.1l8.1-8.1c1.6-1.6,3.8-2.7,6.5-2.7h306.5c2.2,0,4.3,0.5,5.9,2.2l46.4,42.6c1.6,1.6,2.7,4.3,2.7,6.5v72.3
		c0,2.7-1.1,4.9-2.7,6.5l-33.4,33.5c-1.6,1.6-3.8,2.7-6.5,2.7h-63.1c-2.7,0-4.9-1.1-6.5-2.7l-7.6-8.1c-1.6-1.6-2.7-3.8-2.7-6.5
		v-29.7c0-2.7,1.1-4.9,2.7-6.5l7.6-8.1c1.6-1.6,3.8-2.7,6.5-2.7h30.8l10.8-10.3v-7.6l-10.8-10.8H18.4c-2.7,0-4.9-1.1-6.5-2.7
		l-8.1-7.6c-1.6-1.6-2.7-3.8-2.7-6.5v-39.4C1.1,298.8,2.2,296.7,3.8,295.1z"/>
</g>
<g class="st0">
	<path d="M597.9,885.5l9.2-9.2v-26.4c0-2.7,1.1-4.9,2.7-6.5l7.6-7.6c1.6-1.6,3.8-2.7,6.5-2.7h30.7c2.7,0,4.9,1.1,6.5,2.7l7.6,7.6
		c1.6,1.6,2.7,3.8,2.7,6.5v26.4l9.2,9.2h63.1l10.3-10.3v-67.4c0-2.7,1.1-4.9,2.7-6.5l8.1-7.6c1.6-1.6,3.8-2.7,6.5-2.7h30.2
		c2.7,0,4.9,1.1,6.5,2.7l7.6,7.6c1.6,1.6,2.7,3.8,2.7,6.5V926c0,2.7-1.1,4.9-2.7,6.5l-23.7,23.7c-1.6,1.6-3.8,2.7-6.5,2.7H481.9
		c-2.7,0-4.9-1.1-6.5-2.7l-32.9-32.9c-1.6-1.6-2.7-3.8-2.7-6.5v-109c0-2.7,1.1-4.9,2.7-6.5l7.6-7.6c1.6-1.6,3.8-2.7,6.5-2.7h31.3
		c2.7,0,4.9,1.1,6.5,2.7l7.6,7.6c1.6,1.6,2.7,3.8,2.7,6.5v67.4l10.8,10.3H597.9z"/>
	<path d="M563.4,601.7l-9.7,9.7c-1.6,1.6-3.8,2.7-6.5,2.7h-31.8L504.6,625v29.1l10.8,10.3h227.7l10.8-10.3V625l-10.8-10.8h-31.8
		c-2.7,0-4.9-1.1-6.5-2.7l-9.7-9.7c-1.6-1.6-2.7-3.8-2.7-6.5v-29.7c0-2.7,1.1-4.9,2.7-6.5l9.7-9.7c1.6-1.6,3.8-2.7,6.5-2.7h63.7
		c2.7,0,4.9,1.1,6.5,2.7l34,33.5c1.6,1.6,2.7,3.8,2.7,6.5v115.5c0,2.7-1.1,4.9-2.7,6.5L791.6,735c-1.6,1.6-3.8,2.7-6.5,2.7H481.9
		c-2.7,0-4.9-1.1-6.5-2.7L442,702.1c-1.6-1.6-2.7-3.8-2.7-6.5V582.3c0-2.7,1.1-4.9,2.7-6.5l26.4-26.4c1.6-1.6,3.8-2.7,6.5-2.7h72.3
		c2.7,0,4.9,1.1,6.5,2.7l9.7,9.7c1.6,1.6,2.7,3.8,2.7,6.5v29.7C566.1,598,565,600.1,563.4,601.7z"/>
	<path d="M442.6,305.1l7.6-7.6c1.6-1.6,3.8-2.7,6.5-2.7H496c2.7,0,4.9,1.1,6.5,2.7l8.1,7.6c1.6,1.6,2.7,3.8,2.7,6.5v45.9l6.5,6.5
		h281.6c2.7,0,4.9,1.1,6.5,2.7l7.6,8.1c1.6,1.6,2.7,3.8,2.7,6.5V420c0,2.7-1.1,4.9-2.7,6.5l-7.6,8.1c-1.6,1.6-3.8,2.7-6.5,2.7H519.7
		l-6.5,6.5v45.9c0,2.7-1.1,4.9-2.7,6.5l-8.1,7.6c-1.6,1.6-3.8,2.7-6.5,2.7h-39.4c-2.7,0-4.9-1.1-6.5-2.7l-7.6-7.6
		c-1.6-1.6-2.7-3.8-2.7-6.5V311.5C439.9,308.8,440.9,306.7,442.6,305.1z"/>
	<path d="M676.2,55.7h100.4c2.7,0,4.9,1.1,6.5,2.7l32.4,32.9c1.6,1.6,2.7,3.8,2.7,6.5v106.8c0,2.2-0.5,4.3-2.2,5.9L783,246.7
		c-1.6,1.6-4.3,2.7-6.5,2.7h-68c-2.7,0-4.9-1.1-6.5-2.7l-8.1-8.1c-1.6-1.6-2.7-3.8-2.7-6.5v-39.4c0-2.7,1.1-4.9,2.7-6.5l8.1-7.6
		c1.6-1.6,3.8-2.7,6.5-2.7h37.2l8.6-9.2v-29.7l-8.6-8.1h-39.4L595.3,246.7c-1.6,1.6-3.8,2.7-6.5,2.7H485.2c-2.7,0-4.9-1.1-6.5-2.7
		L442,210.6c-1.6-1.6-2.7-3.8-2.7-6.5V98.3c0-2.7,1.1-5.4,3.2-7l37.2-29.1c1.6-1.6,3.2-2.2,5.4-2.2h63.1c2.7,0,4.9,1.1,6.5,2.7
		l8.1,8.1c1.6,1.6,2.7,3.8,2.7,6.5v39.4c0,2.7-1.1,4.9-2.7,6.5l-8.1,7.6c-1.6,1.6-3.8,2.7-6.5,2.7h-35.6l-8.6,8.6v24.8l8.6,9.2h43.2
		L669.7,58.4C671.3,56.8,673.5,55.7,676.2,55.7z"/>
	<g>
		<path d="M371.5,71l6.1,6.6c1.3,1.3,2.2,3.1,2.2,5.3v139.4c0,2.2-0.9,3.9-2.2,5.3l-6.1,6.6c-1.3,1.3-3.1,2.2-5.3,2.2h-32.1
			c-2.2,0-4-0.9-5.3-2.2l-6.6-6.6c-1.3-1.3-2.2-3.1-2.2-5.3V82.9c0-2.2,0.9-4,2.2-5.3l6.6-6.6c1.3-1.3,3.1-2.2,5.3-2.2h32.1
			C368.5,68.8,370.2,69.7,371.5,71z"/>
	</g>
</g>
</svg>
